<svg width="0" viewBox="0 0 64 64" fill="none" xmlns="http://www.w3.org/2000/svg">
<rect x="0.5" y="0.5" width="63" height="63" rx="31.5" fill="#353535" fill-opacity="0.25" stroke="white"/>
<path fill-rule="evenodd" clip-rule="evenodd" d="M36.3562 39.1679C36.9726 40.0274 37.7123 41 37.7123 41C42.2534 40.8417 44 37.5619 44 37.5619C44 30.2787 41.0411 24.3752 41.0411 24.3752C38.0822 21.9323 35.2671 22.0002 35.2671 22.0002L34.9795 22.3621C38.4726 23.5383 40.0959 25.2347 40.0959 25.2347C37.9589 23.9454 35.863 23.3121 33.911 23.0633C32.4315 22.8823 31.0137 22.9276 29.7603 23.1085C29.6526 23.1085 29.5607 23.1257 29.457 23.1452C29.4419 23.148 29.4266 23.1509 29.411 23.1537C28.6918 23.2216 26.9452 23.5156 24.7466 24.5787C23.9863 24.9633 23.5342 25.2347 23.5342 25.2347C23.5342 25.2347 25.2397 23.4478 28.9384 22.2716L28.7329 22.0002C28.7329 22.0002 25.9178 21.9323 22.9589 24.3752C22.9589 24.3752 20 30.2787 20 37.5619C20 37.5619 21.726 40.8417 26.2671 41C26.2671 41 27.0274 39.9822 27.6438 39.1226C25.0342 38.2631 24.0479 36.4536 24.0479 36.4536C24.0479 36.4536 24.2534 36.6119 24.6233 36.8381C24.6438 36.8608 24.6644 36.8834 24.7055 36.906C24.7363 36.9286 24.7671 36.9456 24.7979 36.9625C24.8288 36.9795 24.8596 36.9965 24.8904 37.0191C25.4041 37.3358 25.9178 37.5846 26.3904 37.7881C27.2329 38.15 28.2397 38.5119 29.411 38.7607C30.9521 39.0774 32.7603 39.1905 34.7329 38.7834C35.6986 38.6024 36.6849 38.2857 37.7123 37.8107C38.4315 37.5167 39.2329 37.0869 40.0753 36.4762C40.0753 36.4762 39.0479 38.331 36.3562 39.1679ZM26.1738 31.4397C26.1738 30.06 27.0985 28.929 28.2697 28.929C29.441 28.929 30.3862 30.06 30.3656 31.4397C30.3656 32.8195 29.441 33.9504 28.2697 33.9504C27.119 33.9504 26.1738 32.8195 26.1738 31.4397ZM33.6738 31.4397C33.6738 30.06 34.5985 28.929 35.7697 28.929C36.941 28.929 37.8656 30.06 37.8656 31.4397C37.8656 32.8195 36.941 33.9504 35.7697 33.9504C34.619 33.9504 33.6738 32.8195 33.6738 31.4397Z" fill="white"/>
</svg>
