<svg width="24" height="24" viewBox="0 0 24 24" fill="none" xmlns="http://www.w3.org/2000/svg">
<path fill-rule="evenodd" clip-rule="evenodd" d="M16.3562 19.1679C16.9726 20.0274 17.7123 21 17.7123 21C22.2534 20.8417 24 17.5619 24 17.5619C24 10.2787 21.0411 4.37516 21.0411 4.37516C18.0822 1.93233 15.2671 2.00019 15.2671 2.00019L14.9795 2.36209C18.4726 3.53827 20.0959 5.23468 20.0959 5.23468C17.9589 3.94541 15.863 3.31208 13.911 3.06327C12.4315 2.88232 11.0137 2.92756 9.76027 3.10851C9.65264 3.10851 9.56068 3.12575 9.45703 3.14518C9.44195 3.148 9.42662 3.15088 9.41096 3.15375C8.69178 3.2216 6.94521 3.51565 4.74658 4.57873C3.9863 4.96325 3.53425 5.23468 3.53425 5.23468C3.53425 5.23468 5.23973 3.44779 8.93836 2.27162L8.73288 2.00019C8.73288 2.00019 5.91781 1.93233 2.9589 4.37516C2.9589 4.37516 0 10.2787 0 17.5619C0 17.5619 1.72603 20.8417 6.26712 21C6.26712 21 7.0274 19.9822 7.64384 19.1226C5.03425 18.2631 4.04795 16.4536 4.04795 16.4536C4.04795 16.4536 4.25342 16.6119 4.62329 16.8381C4.64384 16.8608 4.66438 16.8834 4.70548 16.906C4.7363 16.9286 4.76712 16.9456 4.79795 16.9625C4.82877 16.9795 4.85959 16.9965 4.89041 17.0191C5.40411 17.3358 5.91781 17.5846 6.39041 17.7881C7.23288 18.15 8.23973 18.5119 9.41096 18.7607C10.9521 19.0774 12.7603 19.1905 14.7329 18.7834C15.6986 18.6024 16.6849 18.2857 17.7123 17.8107C18.4315 17.5167 19.2329 17.0869 20.0753 16.4762C20.0753 16.4762 19.0479 18.331 16.3562 19.1679ZM6.17383 11.4397C6.17383 10.06 7.09849 8.92902 8.26972 8.92902C9.44095 8.92902 10.3862 10.06 10.3656 11.4397C10.3656 12.8195 9.44095 13.9504 8.26972 13.9504C7.11903 13.9504 6.17383 12.8195 6.17383 11.4397ZM13.6738 11.4397C13.6738 10.06 14.5985 8.92902 15.7697 8.92902C16.941 8.92902 17.8656 10.06 17.8656 11.4397C17.8656 12.8195 16.941 13.9504 15.7697 13.9504C14.619 13.9504 13.6738 12.8195 13.6738 11.4397Z" fill="white"/>
</svg>
