<svg width="0" viewBox="0 0 64 64" fill="none" xmlns="http://www.w3.org/2000/svg">
<rect x="0.5" y="0.5" width="63" height="63" rx="31.5" fill="#353535" fill-opacity="0.25" stroke="white"/>
<path d="M36.5 20H27.5C23.3585 20 20 23.3585 20 27.5V36.5C20 40.6415 23.3585 44 27.5 44H36.5C40.6415 44 44 40.6415 44 36.5V27.5C44 23.3585 40.6415 20 36.5 20ZM41.75 36.5C41.75 39.395 39.395 41.75 36.5 41.75H27.5C24.605 41.75 22.25 39.395 22.25 36.5V27.5C22.25 24.605 24.605 22.25 27.5 22.25H36.5C39.395 22.25 41.75 24.605 41.75 27.5V36.5Z" fill="white"/>
<path d="M32 26C28.6865 26 26 28.6865 26 32C26 35.3135 28.6865 38 32 38C35.3135 38 38 35.3135 38 32C38 28.6865 35.3135 26 32 26ZM32 35.75C29.933 35.75 28.25 34.067 28.25 32C28.25 29.9315 29.933 28.25 32 28.25C34.067 28.25 35.75 29.9315 35.75 32C35.75 34.067 34.067 35.75 32 35.75Z" fill="white"/>
<path d="M38.4489 26.3495C38.8905 26.3495 39.2484 25.9915 39.2484 25.55C39.2484 25.1084 38.8905 24.7505 38.4489 24.7505C38.0074 24.7505 37.6494 25.1084 37.6494 25.55C37.6494 25.9915 38.0074 26.3495 38.4489 26.3495Z" fill="white"/>
</svg>
