<svg width="0" viewBox="0 0 64 64" fill="none" xmlns="http://www.w3.org/2000/svg">
<rect x="0.5" y="0.5" width="63" height="63" rx="31.5" fill="#353535" fill-opacity="0.25" stroke="white"/>
<g clip-path="url(#clip0)">
<path d="M44 24.5585C43.1075 24.95 42.1565 25.2095 41.165 25.3355C42.185 24.7265 42.9635 23.7695 43.3295 22.616C42.3785 23.183 41.3285 23.5835 40.2095 23.807C39.3065 22.8455 38.0195 22.25 36.6155 22.25C33.8915 22.25 31.6985 24.461 31.6985 27.1715C31.6985 27.5615 31.7315 27.9365 31.8125 28.2935C27.722 28.094 24.1025 26.1335 21.671 23.147C21.2465 23.8835 20.9975 24.7265 20.9975 25.634C20.9975 27.338 21.875 28.8485 23.183 29.723C22.3925 29.708 21.617 29.4785 20.96 29.117C20.96 29.132 20.96 29.1515 20.96 29.171C20.96 31.562 22.6655 33.548 24.902 34.0055C24.5015 34.115 24.065 34.1675 23.612 34.1675C23.297 34.1675 22.979 34.1495 22.6805 34.0835C23.318 36.032 25.127 37.4645 27.278 37.511C25.604 38.8205 23.4785 39.6095 21.1775 39.6095C20.774 39.6095 20.387 39.5915 20 39.542C22.1795 40.9475 24.7625 41.75 27.548 41.75C36.602 41.75 41.552 34.25 41.552 27.749C41.552 27.5315 41.5445 27.3215 41.534 27.113C42.5105 26.42 43.331 25.5545 44 24.5585Z" fill="white"/>
</g>
<defs>
<clipPath id="clip0">
<rect width="24" height="24" fill="white" transform="translate(20 20)"/>
</clipPath>
</defs>
</svg>
