<svg width="0" viewBox="0 0 64 64" fill="none" xmlns="http://www.w3.org/2000/svg">
<rect x="0.5" y="0.5" width="63" height="63" rx="31.5" fill="#353535" fill-opacity="0.25" stroke="white"/>
<path d="M42.98 25.34C42.329 24.182 41.6225 23.969 40.184 23.888C38.747 23.7905 35.1335 23.75 32.003 23.75C28.8665 23.75 25.2515 23.7905 23.816 23.8865C22.3805 23.969 21.6725 24.1805 21.0155 25.34C20.345 26.4965 20 28.4885 20 31.9955C20 31.9985 20 32 20 32C20 32.003 20 32.0045 20 32.0045V32.0075C20 35.4995 20.345 37.5065 21.0155 38.651C21.6725 39.809 22.379 40.019 23.8145 40.1165C25.2515 40.2005 28.8665 40.25 32.003 40.25C35.1335 40.25 38.747 40.2005 40.1855 40.118C41.624 40.0205 42.3305 39.8105 42.9815 38.6525C43.658 37.508 44 35.501 44 32.009C44 32.009 44 32.0045 44 32.0015C44 32.0015 44 31.9985 44 31.997C44 28.4885 43.658 26.4965 42.98 25.34ZM29 36.5V27.5L36.5 32L29 36.5Z" fill="white"/>
</svg>
